<?xml version="1.0" encoding="iso-8859-1"?>
<!-- Generator: Adobe Illustrator 19.0.0, SVG Export Plug-In . SVG Version: 6.00 Build 0)  -->
<svg xmlns="http://www.w3.org/2000/svg" xmlns:xlink="http://www.w3.org/1999/xlink" version="1.1" id="Layer_1" x="0px" y="0px" viewBox="0 0 512 512" style="enable-background:new 0 0 512 512;" xml:space="preserve" width="512px" height="512px">
<g>
	<g>
		<path d="M299.482,30.437c-89.296,0-163.031,67.856-172.376,154.71l-13.179-13.179c-3.184-3.183-8.346-3.183-11.529,0    c-3.184,3.185-3.184,8.346,0,11.53l26.088,26.089c0.012,0.012,0.026,0.023,0.038,0.035c0.178,0.176,0.364,0.346,0.559,0.505    c0.095,0.077,0.193,0.145,0.29,0.217c0.116,0.087,0.23,0.177,0.351,0.258c0.114,0.077,0.234,0.143,0.351,0.213    c0.111,0.066,0.22,0.136,0.334,0.198c0.12,0.064,0.242,0.119,0.365,0.176c0.118,0.057,0.236,0.115,0.358,0.166    c0.12,0.049,0.241,0.089,0.362,0.133c0.129,0.047,0.259,0.097,0.391,0.137c0.121,0.036,0.242,0.063,0.364,0.093    c0.136,0.035,0.271,0.073,0.41,0.1c0.141,0.028,0.283,0.045,0.424,0.065c0.122,0.017,0.24,0.04,0.363,0.052    c0.267,0.026,0.536,0.04,0.804,0.04s0.537-0.014,0.804-0.04c0.123-0.012,0.241-0.035,0.363-0.052    c0.142-0.021,0.284-0.037,0.425-0.065c0.139-0.027,0.273-0.065,0.409-0.1c0.122-0.03,0.244-0.058,0.364-0.093    c0.133-0.04,0.261-0.09,0.391-0.137c0.121-0.043,0.244-0.084,0.362-0.133c0.122-0.05,0.239-0.11,0.358-0.166    c0.122-0.058,0.246-0.112,0.365-0.176c0.114-0.061,0.222-0.13,0.333-0.197c0.117-0.071,0.237-0.137,0.352-0.214    c0.121-0.08,0.234-0.17,0.349-0.257c0.098-0.073,0.197-0.14,0.291-0.217c0.195-0.16,0.38-0.328,0.559-0.505    c0.012-0.012,0.026-0.023,0.038-0.035l26.089-26.089c3.184-3.185,3.184-8.346,0-11.53c-3.184-3.183-8.346-3.183-11.529,0    l-10.749,10.749c10.343-76.671,76.2-135.975,155.657-135.975c4.503,0,8.153-3.649,8.153-8.153    C307.635,34.087,303.984,30.437,299.482,30.437z" fill="#0f7ad5"/>
	</g>
</g>
<g>
	<g>
		<path d="M313.943,85.004l-26.089-26.089c-3.183-3.183-8.346-3.183-11.529-0.001c-3.184,3.185-3.184,8.346,0,11.53l12.634,12.633    c-61.924,5.354-110.682,57.458-110.682,120.745c0,4.504,3.65,8.153,8.153,8.153s8.153-3.649,8.153-8.153    c0-53.909,40.878-98.444,93.266-104.251l-11.523,11.523c-3.184,3.185-3.184,8.346,0,11.53c1.591,1.591,3.679,2.387,5.765,2.387    s4.173-0.796,5.765-2.387l26.089-26.089C317.127,93.349,317.127,88.188,313.943,85.004z" fill="#0f7ad5"/>
	</g>
</g>
<g>
	<g>
		<path d="M255.456,447.321c0-4.504-3.65-8.153-8.153-8.153h-26.089c-4.503,0-8.153,3.649-8.153,8.153    c0,0.754,0.111,1.481,0.302,2.174c-0.191,0.694-0.302,1.42-0.302,2.174c0,4.504,3.65,8.153,8.153,8.153h26.089    c4.503,0,8.153-3.649,8.153-8.153c0-0.754-0.111-1.481-0.302-2.174C255.346,448.801,255.456,448.075,255.456,447.321z" fill="#0f7ad5"/>
	</g>
</g>
<g>
	<g>
		<path d="M411.992,284.873V8.153c0-4.504-3.65-8.153-8.153-8.153H73.376c-4.503,0-8.153,3.649-8.153,8.153V425.58v52.178    c0,4.504,3.65,8.153,8.153,8.153h195.272v17.936c0,4.504,3.65,8.153,8.153,8.153h161.824c4.503,0,8.153-3.649,8.153-8.153V319.988    C446.777,300.734,431.203,285.057,411.992,284.873z M268.648,456.017v13.588H81.529v-35.873h187.119V456.017z M268.648,403.84    v13.587H81.529V16.306h314.157v268.56h-11.003h-45.789v-24.384c18.377-12.828,29.616-34.124,29.616-56.66    c0-38.062-30.966-69.028-69.028-69.028c-38.062,0-69.028,30.966-69.028,69.028c0,26.457,14.82,50.124,38.193,61.755v55.25h-24.811    c-19.367,0-35.124,15.756-35.124,35.122v5.995c0,19.367,15.757,35.124,35.124,35.124h24.811V403.84z M303.771,164.997    c-19.367,0-35.124,15.756-35.124,35.124v46.479c-13.588-9.747-21.888-25.479-21.888-42.778c0-29.071,23.651-52.722,52.722-52.722    c29.071,0,52.722,23.651,52.722,52.722c0,13.224-4.817,25.542-13.309,35.038V200.12    C338.895,180.753,323.138,164.997,303.771,164.997z M430.471,495.694H284.954v-17.936v-21.741V425.58v-21.741v-14.924    c0-4.504-3.65-8.153-8.153-8.153h-32.964c-10.376,0-18.818-8.442-18.818-18.818v-5.995c0-10.376,8.442-18.817,18.818-18.817    h32.964c4.503,0,8.153-3.649,8.153-8.153v-68.668v-0.12c0-0.011,0-0.023,0-0.034V200.12c0-10.376,8.442-18.818,18.817-18.818    c10.376,0,18.818,8.442,18.818,18.818v55.94v36.959v35.962c0,4.504,3.65,8.153,8.153,8.153s8.153-3.649,8.153-8.153v-27.809    h37.636v27.809c0,4.504,3.65,8.153,8.153,8.153c4.503,0,8.153-3.649,8.153-8.153v-27.809h11.003h7.815    c10.376,0,18.818,8.442,18.818,18.818V495.694z" fill="#0f7ad5"/>
	</g>
</g>
<g>
</g>
<g>
</g>
<g>
</g>
<g>
</g>
<g>
</g>
<g>
</g>
<g>
</g>
<g>
</g>
<g>
</g>
<g>
</g>
<g>
</g>
<g>
</g>
<g>
</g>
<g>
</g>
<g>
</g>
</svg>
