<?xml version="1.0" encoding="iso-8859-1"?>
<!-- Generator: Adobe Illustrator 19.0.0, SVG Export Plug-In . SVG Version: 6.00 Build 0)  -->
<svg xmlns="http://www.w3.org/2000/svg" xmlns:xlink="http://www.w3.org/1999/xlink" version="1.1" id="Layer_1" x="0px" y="0px" viewBox="0 0 502.003 502.003" style="enable-background:new 0 0 502.003 502.003;" xml:space="preserve" width="512px" height="512px">
<g>
	<g>
		<g>
			<path d="M438.215,255.508c9.078-0.502,18.119,1.346,26.142,5.355c8.197,4.095,17.714,3.683,25.458-1.105     c7.631-4.717,12.187-12.905,12.187-21.9V122.757c0-5.522-4.478-10-10-10H376.901c-2.8,0-4.266-1.694-4.89-2.704     c-0.537-0.867-1.631-3.189-0.226-6.002c5.562-11.13,8.132-23.646,7.433-36.193c-2.037-36.59-32.332-66.371-68.97-67.8     c-19.793-0.779-38.509,6.342-52.741,20.031c-14.24,13.694-22.082,32.114-22.082,51.866c0,11.321,2.559,22.16,7.609,32.218     c1.365,2.718,0.291,4.989-0.233,5.84c-0.633,1.025-2.115,2.744-4.937,2.744H122.757c-5.522,0-10,4.478-10,10v115.1     c0,2.8-1.694,4.265-2.705,4.89c-0.866,0.537-3.188,1.63-6.001,0.226c-11.129-5.56-23.638-8.134-36.191-7.434     c-36.59,2.037-66.372,32.331-67.802,68.968c-0.772,19.777,6.341,38.509,20.03,52.743c13.695,14.24,32.115,22.083,51.868,22.083     c11.321,0,22.16-2.559,32.218-7.609c2.722-1.365,4.99-0.29,5.84,0.233c1.025,0.633,2.744,2.115,2.744,4.937v115.109     c0,5.522,4.478,10,10,10h115.1c8.996,0,17.182-4.556,21.9-12.187c4.788-7.744,5.201-17.261,1.105-25.459     c-4.007-8.023-5.86-17.063-5.355-26.143c1.47-26.404,23.338-47.896,49.781-48.927c14.279-0.555,27.823,4.577,38.099,14.462     c10.282,9.888,15.945,23.189,15.945,37.451c0,8.177-1.844,15.998-5.482,23.245c-4.083,8.13-3.677,17.593,1.085,25.313     c4.729,7.666,12.938,12.243,21.958,12.243h115.108c5.522,0,10-4.478,9.999-10V376.894c0-9.02-4.577-17.229-12.243-21.958     c-7.72-4.762-17.181-5.167-25.313-1.086c-7.248,3.638-15.069,5.483-23.246,5.483c-14.262,0-27.562-5.663-37.451-15.946     c-9.884-10.277-15.02-23.808-14.462-38.1C390.319,278.844,411.811,256.978,438.215,255.508z M389.333,357.251     c13.695,14.239,32.115,22.082,51.867,22.082c11.321,0,22.16-2.559,32.22-7.609c2.718-1.366,4.988-0.291,5.838,0.233     c1.025,0.633,2.744,2.115,2.744,4.937v105.107H376.895c-2.823,0-4.304-1.719-4.937-2.744c-0.524-0.851-1.596-3.121-0.232-5.839     c5.048-10.059,7.608-20.899,7.608-32.219c0-19.752-7.842-38.172-22.082-51.866c-13.534-13.018-31.134-20.088-49.835-20.088     c-0.965,0-1.936,0.019-2.907,0.055c-36.637,1.429-66.933,31.21-68.971,67.8c-0.698,12.547,1.873,25.063,7.434,36.192     c1.405,2.815,0.31,5.136-0.226,6.003c-0.625,1.01-2.09,2.704-4.89,2.704H132.756V376.892c0-9.02-4.577-17.229-12.243-21.958     c-7.719-4.761-17.182-5.167-25.313-1.086c-7.248,3.638-15.068,5.483-23.245,5.483c-14.262,0-27.563-5.663-37.453-15.946     c-9.883-10.278-15.019-23.808-14.46-38.1c1.033-26.443,22.525-48.309,48.929-49.779c9.075-0.502,18.119,1.346,26.141,5.355     c8.196,4.094,17.713,3.683,25.458-1.104c7.632-4.718,12.188-12.905,12.188-21.901V132.755h105.107     c9.02,0,17.229-4.577,21.958-12.243c4.762-7.718,5.168-17.182,1.086-25.313c-3.638-7.248-5.483-15.068-5.483-23.245     c0-14.262,5.663-27.562,15.945-37.451c10.277-9.883,23.806-15.025,38.099-14.462c26.444,1.031,48.31,22.523,49.78,48.927     c0.506,9.081-1.345,18.12-5.354,26.144c-4.096,8.197-3.683,17.714,1.105,25.458c4.717,7.631,12.905,12.187,21.9,12.187h105.101     v105.1c0,2.8-1.694,4.266-2.704,4.89c-0.868,0.537-3.189,1.63-6.002,0.226c-11.129-5.56-23.636-8.134-36.191-7.434     c-36.59,2.037-66.372,32.331-67.802,68.969C368.53,324.285,375.645,343.017,389.333,357.251z" fill="#0f7ad5"/>
			<path d="M199.58,149.929h-39.65c-5.522,0-10,4.478-10,10c0,5.522,4.478,10,10,10h39.65c5.522,0,10-4.478,10-10     C209.58,154.407,205.102,149.929,199.58,149.929z" fill="#0f7ad5"/>
			<path d="M247.904,149.929h-11.151c-5.522,0-10,4.478-10,10c0,5.522,4.478,10,10,10h11.151c5.522,0,10-4.478,10-10     C257.904,154.407,253.426,149.929,247.904,149.929z" fill="#0f7ad5"/>
		</g>
	</g>
</g>
<g>
</g>
<g>
</g>
<g>
</g>
<g>
</g>
<g>
</g>
<g>
</g>
<g>
</g>
<g>
</g>
<g>
</g>
<g>
</g>
<g>
</g>
<g>
</g>
<g>
</g>
<g>
</g>
<g>
</g>
</svg>
