<?xml version="1.0" encoding="iso-8859-1"?>
<!-- Generator: Adobe Illustrator 16.0.0, SVG Export Plug-In . SVG Version: 6.00 Build 0)  -->
<!DOCTYPE svg PUBLIC "-//W3C//DTD SVG 1.1//EN" "http://www.w3.org/Graphics/SVG/1.1/DTD/svg11.dtd">
<svg xmlns="http://www.w3.org/2000/svg" xmlns:xlink="http://www.w3.org/1999/xlink" version="1.1" id="Capa_1" x="0px" y="0px" width="512px" height="512px" viewBox="0 0 79.752 79.751" style="enable-background:new 0 0 79.752 79.751;" xml:space="preserve">
<g>
	<g>
		<path d="M1,38.599c-0.553,0-1,0.447-1,1s0.447,1,1,1c1.163,0,2.08,0.375,2.803,1.146C5.914,44,5.63,48.732,5.625,48.849v12.75    c0,3.211,0.892,5.688,2.649,7.356c2.109,2.004,4.771,2.146,5.479,2.146c0.098,0,0.158-0.004,0.174-0.004    c0.552-0.027,0.976-0.498,0.947-1.051c-0.029-0.554-0.508-0.98-1.051-0.947c-0.026,0.012-2.385,0.104-4.172-1.594    c-1.346-1.277-2.026-3.265-2.026-5.906L7.623,48.916c0.016-0.229,0.348-5.644-2.356-8.533c-0.279-0.298-0.581-0.561-0.901-0.783    c0.32-0.224,0.622-0.484,0.901-0.784c2.704-2.893,2.372-8.305,2.358-8.466v-12.75c0-2.631,0.676-4.612,2.01-5.891    c1.767-1.694,4.158-1.614,4.193-1.61c0.551,0.034,1.017-0.396,1.046-0.947c0.027-0.552-0.396-1.021-0.947-1.051    c-0.138,0.002-3.25-0.14-5.651,2.143c-1.759,1.67-2.649,4.146-2.649,7.356l0.002,12.817c0.09,1.317-0.064,5.151-1.821,7.032    C3.082,38.223,2.165,38.599,1,38.599z" fill="#0f7ad5"/>
		<path d="M78.752,41.153c0.555,0,1-0.444,1-0.999c0-0.554-0.445-1-1-1c-1.164,0-2.08-0.375-2.803-1.146    c-2.111-2.255-1.828-6.989-1.822-7.104v-12.75c0-3.212-0.895-5.688-2.648-7.356c-2.4-2.281-5.521-2.144-5.65-2.143    c-0.553,0.029-0.977,0.499-0.947,1.052c0.029,0.552,0.498,0.976,1.053,0.946c0.025-0.009,2.383-0.104,4.17,1.595    c1.35,1.276,2.025,3.265,2.025,5.906l0.002,12.684c-0.016,0.229-0.348,5.641,2.355,8.532c0.281,0.3,0.582,0.561,0.902,0.782    c-0.32,0.227-0.621,0.484-0.902,0.784c-2.703,2.896-2.371,8.307-2.357,8.465v12.75c0,2.633-0.676,4.613-2.01,5.895    c-1.768,1.689-4.164,1.607-4.191,1.607c-0.531-0.028-1.018,0.396-1.047,0.947c-0.027,0.551,0.396,1.021,0.947,1.051    c0.018,0,0.074,0.002,0.174,0.002c0.705,0,3.367-0.141,5.479-2.145c1.761-1.67,2.648-4.146,2.648-7.357l-0.003-12.813    c-0.09-1.318,0.063-5.152,1.821-7.031C76.67,41.532,77.586,41.153,78.752,41.153z" fill="#0f7ad5"/>
		<path d="M30.479,57.088h19.042c0.355,0,0.688-0.188,0.867-0.5l9.521-16.489c0.178-0.31,0.178-0.688,0-1l-9.521-16.49    c-0.182-0.31-0.512-0.5-0.867-0.5H30.479c-0.356,0-0.688,0.19-0.865,0.5l-9.521,16.49c-0.179,0.312-0.179,0.69,0,1l9.521,16.489    C29.791,56.897,30.122,57.088,30.479,57.088z M31.056,24.108h17.887l8.943,15.49l-8.943,15.489H31.056l-8.942-15.489    L31.056,24.108z" fill="#0f7ad5"/>
		<path d="M40,48.349c4.824,0,8.75-3.926,8.75-8.75c0-4.825-3.926-8.75-8.75-8.75c-4.825,0-8.75,3.925-8.75,8.75    C31.25,44.423,35.175,48.349,40,48.349z M40,32.849c3.723,0,6.75,3.028,6.75,6.75c0,3.723-3.027,6.75-6.75,6.75    c-3.724,0-6.75-3.027-6.75-6.75S36.279,32.849,40,32.849z" fill="#0f7ad5"/>
	</g>
</g>
<g>
</g>
<g>
</g>
<g>
</g>
<g>
</g>
<g>
</g>
<g>
</g>
<g>
</g>
<g>
</g>
<g>
</g>
<g>
</g>
<g>
</g>
<g>
</g>
<g>
</g>
<g>
</g>
<g>
</g>
</svg>
